<svg xmlns="http://www.w3.org/2000/svg" viewBox="0 0 62.53 68.99"><defs><style>.cls-1{fill:#00b7ee;}.cls-2{fill:#0076be;}</style></defs><g id="Layer_2" data-name="Layer 2"><g id="Layer_1-2" data-name="Layer 1"><path class="cls-1" d="M21.27,53.62V69H6.05c0-.3.06-.6.06-.9V53.64h0c1.86,0,3.71,0,5.57,0,3.19,0,6.38,0,9.58,0Z"/><path class="cls-2" d="M6.14,53.64H0v-15l6.08,0,0,0h0c0,3.85,0,7.7,0,11.56C6.21,51.34,6.16,52.49,6.14,53.64Z"/><path class="cls-2" d="M47.32.07c4.31,0,8.62,0,12.93,0a2,2,0,0,1,2.14,2.13c0,7.49.39,15-.12,22.48-.8,12-7,20.65-17.73,26a29.09,29.09,0,0,1-13.37,3l-9.9,0h0v-15l9.15,0a21.29,21.29,0,0,0,3.91-.34A16.11,16.11,0,0,0,47.16,24.33c.28-3,.09-6.08.13-9.12Z"/><path class="cls-1" d="M47.32.07l0,15.14-10.44,0a12.05,12.05,0,0,0-2.81.32A16.05,16.05,0,0,0,21.28,31.33c0,2.44,0,4.87,0,7.31v0H6.13l0,0,0-6.86A30.82,30.82,0,0,1,16.67,7.88,29.84,29.84,0,0,1,34.13.23C38.52-.19,42.92.1,47.32.07Z"/></g></g></svg>