<svg width="84" height="32" viewBox="0 0 84 32" fill="none" xmlns="http://www.w3.org/2000/svg">
<path class="st0" d="M6.3,13.8c0,1.3,0,2.6,0,3.9c-1.3,0-2.6,0-3.8,0c0-0.1,0-0.2,0-0.2c0-1.2,0-2.4,0-3.6l0,0c0.5,0,0.9,0,1.4,0
		C4.7,13.8,5.5,13.8,6.3,13.8L6.3,13.8z"/>
	<path class="st1" d="M2.5,13.8C2.5,13.8,2.5,13.8,2.5,13.8c-0.5,0-1,0-1.5,0c0-1.2,0-2.5,0-3.8c0.5,0,1,0,1.5,0l0,0l0,0
		c0,1,0,1.9,0,2.9C2.5,13.2,2.5,13.5,2.5,13.8z"/>
	<path class="st1" d="M12.9,0.3c1.1,0,2.2,0,3.3,0c0.3,0,0.6,0.2,0.6,0.5c0,1.9,0.1,3.8,0,5.7c-0.2,3-1.8,5.2-4.5,6.6
		c-1.1,0.5-2.2,0.8-3.4,0.7c-0.8,0-1.7,0-2.5,0l0,0c0-1.2,0-2.5,0-3.8l0,0c0.8,0,1.5,0,2.3,0c0.3,0,0.6,0,1-0.1
		c1.7-0.3,3.1-1.8,3.2-3.5c0.1-0.8,0-1.5,0-2.3C12.9,2.9,12.9,1.6,12.9,0.3z"/>
	<path class="st0" d="M12.9,0.3c0,1.3,0,2.5,0,3.8c-0.9,0-1.8,0-2.6,0c-0.3,0-0.5,0-0.7,0.1c-1.9,0.4-3.2,2-3.2,4c0,0.6,0,1.2,0,1.8
		l0,0c-1.3,0-2.5,0-3.8,0l0,0l0,0c0-0.6,0-1.2,0-1.7c0-2.4,0.9-4.4,2.7-6c1.2-1.1,2.7-1.8,4.4-1.9C10.7,0.2,11.8,0.3,12.9,0.3z"/></svg>
