<?xml version="1.0" encoding="utf-8"?>
<!-- Generator: Adobe Illustrator 25.3.1, SVG Export Plug-In . SVG Version: 6.00 Build 0)  -->
<svg version="1.0" id="Layer_1" xmlns="http://www.w3.org/2000/svg" xmlns:xlink="http://www.w3.org/1999/xlink" x="0px" y="0px"
	 viewBox="0 0 211 47" enable-background="new 0 0 211 47" xml:space="preserve">
<g>
	<path fill="#FCFCFC" d="M210.7,25c-0.2,0.2-0.2,0.4-0.2,0.6c-1.1,5.4-6.2,9.4-12,9.3c-5.7-0.1-10.9-4.2-11.7-9.6
		c-1.3-7.5,5.1-13.8,12.7-13.4c5.6,0.3,10.6,4.7,11.2,10c0,0.1,0,0.2,0.1,0.3C210.7,23.2,210.7,24.1,210.7,25z M206.4,23.4
		c0-4.1-3.4-7.4-7.7-7.4c-4.3,0-7.8,3.4-7.8,7.3c0,4.1,3.5,7.3,7.7,7.3C202.9,30.8,206.4,27.5,206.4,23.4z"/>
	<path fill="#FCFCFC" d="M89.4,12c2.9,0,5.9,0,8.7,0c0.5,0,0.6,0.2,0.6,0.6c0,1,0,2,0,3.1c0,0.5-0.2,0.5-0.6,0.5
		c-5.5,0-11.1,0-16.6,0c-1.7,0-2.6,0.7-2.6,2.4c0,0.6-0.3,1.3,0.1,1.6c0.3,0.3,1.2,0.1,1.7,0.1c4.4,0,8.7,0,13.1,0
		c0.4,0,0.6,0.1,0.5,0.5c0,1,0,2,0,3.1c0,0.5-0.2,0.6-0.6,0.6c-4.7,0-9.5,0-14.2,0c-0.5,0-0.6,0.1-0.6,0.6c0,1.1,0,2.3,0,3.5
		c0,1.5,0.9,2.3,2.4,2.3c5.5,0,11.1,0,16.6,0c0.6,0,0.7,0.2,0.7,0.7c0,1,0,2,0,3.1c0,0.3-0.1,0.4-0.4,0.4c-5.9,0-11.6,0-17.5,0
		c-3.4,0-6.3-2.8-6.3-6.1c0-3.6,0-7.1,0-10.7c0-3.4,2.9-6.1,6.4-6.1C83.7,12,86.5,12,89.4,12z"/>
	<g>
		<path fill="#00B6ED" d="M14.1,34.9c0,3.1,0,6.1,0,9.2c-3.2,0-6.4,0-9.5,0c0-0.2,0-0.4,0-0.5c0-2.8,0-5.8,0-8.6l0,0
			c1.2,0,2.3,0,3.5,0C10.2,35,12.2,34.9,14.1,34.9L14.1,34.9z"/>
		<path fill="#0076BD" d="M4.7,34.9C4.7,34.9,4.6,34.9,4.7,34.9c-1.3,0-2.6,0-3.8,0c0-2.9,0-6,0-9c1.3,0,2.6,0,3.8,0l0,0l0,0
			c0,2.3,0,4.6,0,6.9C4.7,33.6,4.7,34.3,4.7,34.9z"/>
		<path fill="#0076BD" d="M30.4,3c2.7,0,5.4,0,8.1,0c0.7,0,1.4,0.5,1.4,1.2c0,4.5,0.2,9-0.1,13.4c-0.5,7.1-4.4,12.3-11.1,15.6
			c-2.7,1.2-5.4,1.8-8.4,1.7c-2,0-4.2,0-6.2,0l0,0c0-2.9,0-6,0-9l0,0c1.9,0,3.8,0,5.7,0c0.9,0,1.6-0.1,2.4-0.2
			c4.2-0.7,7.7-4.3,8-8.3c0.2-1.8,0.1-3.7,0.1-5.5C30.4,9,30.4,5.9,30.4,3z"/>
		<path fill="#00B6ED" d="M30.4,3c0,3.1,0,6,0,9.1c-2.1,0-4.4,0-6.5,0c-0.6,0-1.2,0.1-1.7,0.2c-4.8,1-8,4.8-8,9.5c0,1.4,0,2.9,0,4.4
			l0,0c-3.2,0-6.3,0-9.5,0l0,0l0,0c0-1.3,0-2.7,0-4.1c0-5.7,2.1-10.5,6.6-14.2c3.1-2.6,6.7-4.2,11-4.6C25,2.8,27.7,3,30.4,3z"/>
	</g>
	<path fill="#FCFCFC" d="M159.9,23.5c0-3.7,0-7.3,0-11c0-0.4,0.1-0.5,0.5-0.5c3.9,0,7.9,0,11.8,0c5.7,0,10.9,4.4,11.6,9.9
		c0.9,6.3-3.4,11.9-10,12.9c-0.6,0.1-1.2,0.1-1.8,0.1c-3.8,0-7.7,0-11.6,0c-0.4,0-0.5-0.1-0.5-0.5C159.9,30.7,159.9,27.2,159.9,23.5
		z M164.2,23.4c0,2.3,0,4.6,0,6.9c0,0.4,0.1,0.5,0.5,0.5c2.4,0,4.9,0,7.3,0c4.3,0,7.6-3.4,7.6-7.3c0-4.1-3.4-7.3-7.7-7.3
		c-2.4,0-4.8,0-7.2,0c-0.4,0-0.5,0.1-0.5,0.5C164.2,18.9,164.2,21.2,164.2,23.4z"/>
	<path fill="#FCFCFC" d="M156.4,34.9c-6.5-4.8-13.1-9.6-19.7-14.4c0,0.3,0,0.5,0,0.6c0,4.4,0,8.8,0,13.2c0,0.4-0.1,0.6-0.6,0.6
		c-1.1,0-2.2,0-3.3,0c-0.3,0-0.4,0-0.4-0.4c0-7.4,0-14.8,0-22.3c0,0,0-0.1,0.1-0.2c6.6,4.8,13.1,9.7,19.7,14.4c0-0.3,0-0.5,0-0.7
		c0-4.5,0-8.8,0-13.3c0-0.5,0.1-0.6,0.6-0.6c1.1,0,2.1,0,3.2,0c0.4,0,0.5,0.1,0.5,0.5c0,4.2,0,8.3,0,12.5c0,3.1,0,6.2,0,9.3
		C156.5,34.5,156.5,34.7,156.4,34.9z"/>
	<path fill="#FCFCFC" d="M50.1,23.4c0-3.7,0-7.2,0-10.9c0-0.4,0.1-0.6,0.6-0.6c4.8,0,9.6,0,14.4,0c1.9,0,3.5,0.7,4.7,2.1
		c2,2.5,2.6,5.4,1.7,8.4c-0.6,2.1-3.5,4.5-6.4,4.4c-3.3-0.1-6.6,0-9.9,0c-0.7,0-0.7,0-0.7,0.7c0,2.2,0,4.6,0,6.8
		c0,0.4-0.1,0.5-0.5,0.5c-1.1,0-2.1,0-3.3,0c-0.4,0-0.5-0.1-0.5-0.5C50.1,30.7,50.1,27.1,50.1,23.4z M60.1,16.4c-1.7,0-3.4,0-5.1,0
		c-0.4,0-0.6,0.1-0.6,0.5c0,1.7,0,3.5,0,5.2c0,0.5,0.1,0.6,0.6,0.6c3.3,0,6.6,0,9.9,0c1.1,0,1.7-0.4,2.1-1.2
		c0.6-1.2,0.6-2.5,0.1-3.9c-0.3-0.8-1-1.2-1.8-1.2C63.5,16.4,61.8,16.4,60.1,16.4z"/>
	<path fill="#FCFCFC" d="M101.4,20.4c0-2.6,0-5.3,0-7.8c0-0.4,0.1-0.5,0.5-0.5c1.1,0,2,0,3.1,0c0.5,0,0.7,0.1,0.7,0.6c0,5,0,10,0,15
		c0,1.9,1.4,3.3,3.4,3.3c3.8,0,7.7,0,11.6,0c0.4,0,0.5,0.1,0.5,0.5c0,1,0,2.1,0,3.2c0,0.3-0.1,0.4-0.4,0.4c-4,0-8.2,0-12.2,0
		c-3.9-0.1-7.1-3.4-7.1-7.1C101.4,25.3,101.4,22.9,101.4,20.4z"/>
	<path fill="#FCFCFC" d="M129,23.5c0,3.7,0,7.2,0,10.9c0,0.5-0.1,0.6-0.6,0.6c-1.1,0-2,0-3.1,0c-0.5,0-0.6-0.1-0.6-0.6
		c0-5.9,0-11.7,0-17.6c0-1.4,0-2.9,0-4.4c0-0.4,0.1-0.5,0.5-0.4c1.1,0,2.2,0,3.3,0c0.4,0,0.5,0.1,0.5,0.5
		C129,16.2,129,19.9,129,23.5z"/>
</g>
</svg>
