<?xml version="1.0" encoding="utf-8"?>
<!-- Generator: Adobe Illustrator 25.3.1, SVG Export Plug-In . SVG Version: 6.00 Build 0)  -->
<svg version="1.1" id="Layer_1" xmlns="http://www.w3.org/2000/svg" xmlns:xlink="http://www.w3.org/1999/xlink" x="0px" y="0px"
	 viewBox="0 0 216 50" style="enable-background:new 0 0 216 50;" xml:space="preserve">
<style type="text/css">
	.st0{fill:#0376BC;}
	.st1{fill:#3CB4E5;}
	.st2{fill:#0E74B6;}
	.st3{fill:#0475BC;}
</style>
<g>
	<path class="st0" d="M99.7,46.5h0.9v-4.8h-0.9V46.5z M105.4,41.7l-2,4l-0.4,0.9h1l0.4-0.9l0.2-0.3h1.8l0.2,0.3l0.4,0.9h1l-0.4-0.9
		L105.4,41.7z M104.9,44.6l0.5-1l0.5,1H104.9z M115.7,43.5l-1.5-1.2l-0.9-0.7v4.8h0.9v-3.1l0.8,0.6l0.7,0.5l0.7-0.5l0.8-0.6v3.1h0.9
		v-4.8l-0.9,0.7L115.7,43.5z M95.7,41.7h-2c-0.7,0-1.3,0.6-1.3,1.3v0c0,0.3,0.1,0.5,0.2,0.7c0,0.1,0.1,0.1,0.2,0.2
		c0.2,0.2,0.5,0.4,0.9,0.4h1.7c0.4,0,0.7,0.3,0.7,0.7c0,0.4-0.3,0.7-0.7,0.7H94c-0.4,0-0.7-0.3-0.7-0.7h-0.9c0,0.8,0.7,1.5,1.5,1.5
		h1.5c0.8,0,1.5-0.7,1.5-1.5c0-0.4-0.1-0.7-0.3-1c0,0,0,0-0.1-0.1c-0.3-0.3-0.7-0.5-1.1-0.5h-1.7c-0.2,0-0.4-0.2-0.4-0.4v0
		c0-0.2,0.2-0.4,0.4-0.4h2c0.2,0,0.4,0.2,0.4,0.4v0l0.9,0v0C97,42.3,96.4,41.7,95.7,41.7z M59.3,44.8l-3.1-2.4l-0.9-0.7v4.8h0.9v-3
		l3.1,2.4l0.9,0.7v-4.8l-0.9,0V44.8z M65.2,41.7l-2.4,0v4.8h2.4c0.7,0,1.3-0.3,1.7-0.7c0,0,0.1-0.1,0.1-0.1c0.4-0.4,0.6-1,0.6-1.6
		C67.6,42.8,66.5,41.7,65.2,41.7z M65.2,45.7h-1.5v-3.1h1.5c0.9,0,1.5,0.7,1.5,1.5S66.1,45.7,65.2,45.7z M51.8,46.5h0.9v-4.8h-0.9
		V46.5z M85,43v2.2c0,0.7,0.6,1.3,1.3,1.3h3.5v-0.9h-3.5c-0.2,0-0.4-0.2-0.4-0.4v-0.9h3.1v-0.9h-3.1V43c0-0.2,0.2-0.4,0.4-0.4h3.5
		v-0.9h-3.5C85.6,41.7,85,42.3,85,43z M81.4,44.8l-3.1-2.4l-0.9-0.7v4.8h0.9v-3l3.1,2.4l0.9,0.7v-4.8l-0.9,0V44.8z M72.5,41.7
		c-1.3,0-2.4,1.1-2.4,2.4c0,1.3,1.1,2.4,2.4,2.4c1.3,0,2.4-1.1,2.4-2.4C75,42.8,73.9,41.7,72.5,41.7z M72.5,45.6
		c-0.9,0-1.5-0.7-1.5-1.5c0-0.9,0.7-1.5,1.5-1.5c0.9,0,1.5,0.7,1.5,1.5C74.1,45,73.4,45.6,72.5,45.6z M209.2,46.5L209.2,46.5
		L209.2,46.5L209.2,46.5z M200.1,44.6l-0.7-1l-0.1-0.2l-0.4-0.5l-0.4,0.5l-0.1,0.2l-0.7,1l-0.9-2.9h-0.9l1.1,3.8l0.3,1l0.6-0.9
		l0.9-1.3l1,1.3l0.6,0.9l0.3-1l1.1-3.8H201L200.1,44.6z M188.4,43v2.2c0,0.7,0.6,1.3,1.3,1.3h3.5v-0.9h-3.5c-0.2,0-0.4-0.2-0.4-0.4
		v-0.9h3.1v-0.9h-3.1V43c0-0.2,0.2-0.4,0.4-0.4h3.5v-0.9h-3.5C189,41.7,188.4,42.3,188.4,43z M180.9,42.6h2v4h0.9v-4h2v-0.9h-4.8
		V42.6z M205.6,41.7l-2,4l-0.4,0.9h1l0.4-0.9l0.2-0.3h1.8l0.2,0.3l0.4,0.9h1l-0.4-0.9L205.6,41.7z M205.1,44.6l0.5-1l0.5,1H205.1z
		 M132.1,43c0-0.4-0.1-0.7-0.4-0.9c-0.2-0.2-0.6-0.4-0.9-0.4h-3v4.8h0.9v-2.2h0.9c0.3,0,0.6,0.2,0.7,0.4l0,0l0.5,0.9l0.4,0.9h1
		l-0.4-0.9l-0.7-1.4c0.1,0,0.3,0,0.4-0.1C131.8,44,132.1,43.5,132.1,43z M131,43.4c-0.1,0-0.1,0-0.2,0l-2.2,0v-0.9h2.2
		c0.2,0,0.3,0.1,0.3,0.1c0,0,0.1,0.2,0.1,0.3C131.3,43.2,131.2,43.3,131,43.4z M177.4,41.7l-2,4l-0.4,0.9h1l0.4-0.9l0.2-0.3h1.8
		l0.2,0.3l0.4,0.9h1l-0.4-0.9L177.4,41.7z M176.8,44.6l0.5-1l0.5,1H176.8z M212.9,41.7l-1.3,1.7l-1.3-1.7h-1.1l1.9,2.4l0.1,0.1v2.3
		h0.9v-2.3l0.1-0.1l1.9-2.4H212.9z M214,46.5L214,46.5L214,46.5L214,46.5z M138.5,42.6h2v4h0.9v-4h2v-0.9h-4.8V42.6z M134.8,46.5
		h0.9v-4.8h-0.9V46.5z M146,46.5h0.9v-4.8H146V46.5z M167.7,44.1c0,1.3,1.1,2.4,2.4,2.4h2.4v-2.6h-2.4v0.9h1.5v0.9h-1.5
		c-0.9,0-1.5-0.7-1.5-1.5c0-0.9,0.7-1.5,1.5-1.5h2.4v-0.9h-2.4C168.8,41.7,167.7,42.8,167.7,44.1z M152.2,43.5l-1.5-1.2l-0.9-0.7
		v4.8h0.9v-3.1l0.8,0.6l0.7,0.5l0.7-0.5l0.8-0.6v3.1h0.9v-4.8l-0.9,0.7L152.2,43.5z M157.3,43v2.2c0,0.7,0.6,1.3,1.3,1.3h3.5v-0.9
		h-3.5c-0.2,0-0.4-0.2-0.4-0.4v-0.9h3.1v-0.9h-3.1V43c0-0.2,0.2-0.4,0.4-0.4h3.5v-0.9h-3.5C157.9,41.7,157.3,42.3,157.3,43z
		 M123,41.7l-2,4l-0.4,0.9h1l0.4-0.9l0.2-0.3h1.8l0.2,0.3l0.4,0.9h1l-0.4-0.9L123,41.7z M122.4,44.6l0.5-1l0.5,1H122.4z"/>
	<g>
		<rect x="5.9" y="37.2" class="st1" width="9.5" height="9.5"/>
		<path class="st1" d="M15.4,27.7H5.9V23c0-10.9,8.8-19.7,19.7-19.7h6.3l0,9.5h-6.3c-5.6,0-10.2,4.6-10.2,10.2V27.7z"/>
		<rect x="2" y="27.7" class="st2" width="3.9" height="9.5"/>
		<path class="st3" d="M21.7,37.2h-6.3v-9.5h6.3c5.6,0,10.2-4.5,10.2-10.2V3.3H40c0.8,0,1.4,0.6,1.4,1.4v12.9
			C41.4,28.4,32.6,37.2,21.7,37.2"/>
	</g>
	<g>
		<path class="st3" d="M71.7,15.4c1.2,1.5,1.9,3.6,1.9,5.9c0,3.4-1.6,5.3-3.8,6.7c-0.6,0.4-1.2,0.6-1.9,0.7h-0.2v0H56.1v8.5h-4.3
			V12.8h15.3C68.9,12.8,70.5,13.8,71.7,15.4L71.7,15.4z M68,23.9c0.8-0.4,1.3-1.9,1.3-3.1c0-1-0.4-2.2-0.7-2.5
			c-0.3-0.4-0.8-0.8-1.6-0.8h-11v6.7h11C67.4,24.2,67.7,24.1,68,23.9L68,23.9z"/>
		<path class="st3" d="M80.8,19.4v2.3h15.6V26H80.8v4.6c0,1.2,1,2.2,2.2,2.2h17.8v4.3H83c-3.6,0-6.5-3-6.5-6.6V19.4
			c0-3.6,2.9-6.6,6.5-6.6h17.8v4.3H83C81.8,17.2,80.8,18.2,80.8,19.4"/>
		<path class="st3" d="M123.6,32.9v4.3h-12.3c-1.2,0-2.4-0.3-3.4-0.8c-1.5-0.8-2.8-2-3.5-3.5c-0.5-1-0.8-2.2-0.8-3.4V12.9h4.3v17
			c0.2,1.5,1.4,2.7,3,3L123.6,32.9z"/>
		<rect x="127.1" y="12.8" class="st3" width="4.3" height="24.3"/>
		<polygon class="st3" points="159.2,12.9 159.2,37.2 154.9,33.9 139.2,21.8 139.2,37.2 134.9,37.2 134.9,12.9 139.2,16.3 
			154.9,28.3 154.9,12.8 		"/>
		<path class="st3" d="M174.8,12.9c6.7,0,12.2,5.4,12.2,12.1c0,3-1.1,5.7-2.9,7.9c-0.2,0.2-0.5,0.5-0.7,0.7
			c-2.2,2.2-5.2,3.6-8.6,3.6h-12.2V12.8L174.8,12.9z M167,32.9h7.8c4.3,0,7.8-3.5,7.8-7.8s-3.5-7.8-7.8-7.8H167V32.9z"/>
		<path class="st3" d="M214,25c0,6.7-5.5,12.2-12.2,12.2c-6.7,0-12.2-5.5-12.2-12.2s5.5-12.2,12.2-12.2C208.5,12.8,214,18.3,214,25
			 M209.6,25c0-4.3-3.5-7.8-7.8-7.8c-4.3,0-7.8,3.5-7.8,7.8s3.5,7.8,7.8,7.8C206.1,32.8,209.6,29.3,209.6,25"/>
	</g>
</g>
</svg>
