<?xml version="1.0" encoding="utf-8"?>
<!-- Generator: Adobe Illustrator 25.3.1, SVG Export Plug-In . SVG Version: 6.00 Build 0)  -->
<svg version="1.1" id="Layer_1" xmlns="http://www.w3.org/2000/svg" xmlns:xlink="http://www.w3.org/1999/xlink" x="0px" y="0px"
	 viewBox="0 0 211 47" style="enable-background:new 0 0 211 47;" xml:space="preserve">
<style type="text/css">
	.st0{fill:#0376BC;}
	.st1{fill:#3CB4E5;}
	.st2{fill:#0E74B6;}
	.st3{fill:#0475BC;}
</style>
<g>
	<path class="st0" d="M97.6,43.9h0.8v-4.6h-0.8V43.9z M103.1,39.4l-1.9,3.8l-0.4,0.8h0.9l0.4-0.8l0.2-0.3h1.7l0.2,0.3l0.4,0.8h0.9
		l-0.4-0.8L103.1,39.4z M102.6,42.1l0.5-1l0.5,1H102.6z M112.8,41.1l-1.5-1.1l-0.8-0.6v4.6h0.8V41l0.8,0.6l0.7,0.5l0.7-0.5l0.8-0.6
		v2.9h0.8v-4.6l-0.8,0.6L112.8,41.1z M93.8,39.4H92c-0.7,0-1.2,0.6-1.2,1.2v0c0,0.3,0.1,0.5,0.2,0.7c0,0.1,0.1,0.1,0.2,0.2
		c0.2,0.2,0.5,0.3,0.9,0.3h1.6c0.3,0,0.6,0.3,0.6,0.6c0,0.3-0.3,0.6-0.6,0.6h-1.4c-0.3,0-0.6-0.3-0.6-0.6h-0.8
		c0,0.8,0.6,1.4,1.4,1.4h1.4c0.8,0,1.4-0.6,1.4-1.4c0-0.3-0.1-0.7-0.3-0.9c0,0,0,0-0.1-0.1c-0.3-0.3-0.6-0.5-1.1-0.5H92
		c-0.2,0-0.4-0.2-0.4-0.4v0c0-0.2,0.2-0.4,0.4-0.4h1.9c0.2,0,0.4,0.2,0.4,0.4v0l0.8,0v0C95.1,39.9,94.5,39.4,93.8,39.4z M59.2,42.3
		L56.2,40l-0.8-0.6v4.6h0.8v-2.9l2.9,2.3l0.8,0.6v-4.6l-0.8,0V42.3z M64.8,39.4l-2.3,0v4.6h2.3c0.6,0,1.2-0.3,1.6-0.7
		c0,0,0.1-0.1,0.1-0.1c0.3-0.4,0.5-0.9,0.5-1.5C67.1,40.4,66.1,39.4,64.8,39.4z M64.8,43.1h-1.5v-2.9h1.5c0.8,0,1.5,0.7,1.5,1.5
		S65.6,43.1,64.8,43.1z M52.1,43.9h0.8v-4.6h-0.8V43.9z M83.6,40.6v2.1c0,0.7,0.5,1.2,1.2,1.2h3.3v-0.8h-3.3c-0.2,0-0.4-0.2-0.4-0.4
		v-0.9h2.9V41h-2.9v-0.4c0-0.2,0.2-0.4,0.4-0.4h3.3v-0.8h-3.3C84.2,39.4,83.6,39.9,83.6,40.6z M80.2,42.3L77.3,40l-0.8-0.6v4.6h0.8
		v-2.9l2.9,2.3l0.8,0.6v-4.6l-0.8,0V42.3z M71.8,39.4c-1.3,0-2.3,1-2.3,2.3c0,1.3,1,2.3,2.3,2.3c1.3,0,2.3-1,2.3-2.3
		C74.1,40.4,73.1,39.4,71.8,39.4z M71.8,43.1c-0.8,0-1.5-0.7-1.5-1.5c0-0.8,0.7-1.5,1.5-1.5c0.8,0,1.5,0.7,1.5,1.5
		C73.3,42.5,72.6,43.1,71.8,43.1z M201.7,44L201.7,44L201.7,44L201.7,44z M193.1,42.1l-0.7-1l-0.1-0.2l-0.4-0.5l-0.4,0.5l-0.1,0.2
		l-0.7,1l-0.8-2.8H189l1.1,3.6l0.3,1l0.6-0.8l0.9-1.2l0.9,1.2l0.6,0.8l0.3-1l1.1-3.6h-0.8L193.1,42.1z M181.9,40.6v2.1
		c0,0.7,0.5,1.2,1.2,1.2h3.3v-0.8h-3.3c-0.2,0-0.4-0.2-0.4-0.4v-0.9h2.9V41h-2.9v-0.4c0-0.2,0.2-0.4,0.4-0.4h3.3v-0.8h-3.3
		C182.4,39.4,181.9,39.9,181.9,40.6z M174.8,40.2h1.9v3.8h0.8v-3.8h1.9v-0.8h-4.6V40.2z M198.3,39.4l-1.9,3.8l-0.4,0.8h0.9l0.4-0.8
		l0.2-0.3h1.7l0.2,0.3l0.4,0.8h0.9l-0.4-0.8L198.3,39.4z M197.8,42.1l0.5-1l0.5,1H197.8z M128.4,40.6c0-0.3-0.1-0.6-0.4-0.9
		c-0.2-0.2-0.5-0.4-0.9-0.4h-2.9V44h0.8v-2.1h0.8c0.3,0,0.5,0.2,0.7,0.4l0,0l0.4,0.9l0.4,0.8h0.9l-0.4-0.8l-0.7-1.3
		c0.1,0,0.2,0,0.4-0.1C128.1,41.5,128.4,41.1,128.4,40.6z M127.4,41c-0.1,0-0.1,0-0.2,0l-2.1,0v-0.8h2.1c0.1,0,0.2,0.1,0.3,0.1
		c0,0,0.1,0.2,0.1,0.3C127.6,40.8,127.5,40.9,127.4,41z M171.4,39.4l-1.9,3.8l-0.4,0.8h0.9l0.4-0.8l0.2-0.3h1.7l0.2,0.3l0.4,0.8h0.9
		l-0.4-0.8L171.4,39.4z M170.9,42.1l0.5-1l0.5,1H170.9z M205.2,39.4L204,41l-1.3-1.6h-1l1.8,2.3l0.1,0.1v2.1h0.8v-2.2l0.1-0.1
		l1.8-2.3H205.2z M206.2,44L206.2,44L206.2,44L206.2,44z M134.5,40.2h1.9V44h0.8v-3.8h1.9v-0.8h-4.6V40.2z M131,43.9h0.8v-4.6H131
		V43.9z M141.7,43.9h0.8v-4.6h-0.8V43.9z M162.2,41.7c0,1.3,1,2.3,2.3,2.3h2.3v-2.5h-2.3v0.8h1.5v0.9h-1.5c-0.8,0-1.5-0.7-1.5-1.5
		c0-0.8,0.7-1.5,1.5-1.5h2.3v-0.8h-2.3C163.3,39.4,162.2,40.4,162.2,41.7z M147.5,41.1l-1.5-1.1l-0.8-0.6v4.6h0.8V41l0.8,0.6
		l0.7,0.5l0.7-0.5L149,41v2.9h0.8v-4.6L149,40L147.5,41.1z M152.4,40.6v2.1c0,0.7,0.5,1.2,1.2,1.2h3.3v-0.8h-3.3
		c-0.2,0-0.4-0.2-0.4-0.4v-0.9h2.9V41h-2.9v-0.4c0-0.2,0.2-0.4,0.4-0.4h3.3v-0.8h-3.3C152.9,39.4,152.4,39.9,152.4,40.6z
		 M119.7,39.4l-1.9,3.8l-0.4,0.8h0.9l0.4-0.8l0.2-0.3h1.7l0.2,0.3l0.4,0.8h0.9l-0.4-0.8L119.7,39.4z M119.2,42.1l0.5-1l0.5,1H119.2z
		"/>
	<g>
		<rect x="8.4" y="35.1" class="st1" width="9.1" height="9.1"/>
		<path class="st1" d="M17.5,26H8.4v-4.5c0-10.3,8.4-18.7,18.7-18.7h6l0,9.1h-6c-5.3,0-9.6,4.3-9.6,9.6V26z"/>
		<rect x="4.8" y="26" class="st2" width="3.7" height="9.1"/>
		<path class="st3" d="M23.5,35.1h-6V26h6c5.3,0,9.6-4.3,9.6-9.6V2.8h7.8c0.7,0,1.3,0.6,1.3,1.3v12.2C42.2,26.7,33.8,35.1,23.5,35.1
			"/>
	</g>
	<g>
		<path class="st3" d="M71,14.3c1.1,1.4,1.8,3.4,1.8,5.6c0,3.2-1.5,5.1-3.6,6.3c-0.6,0.3-1.2,0.5-1.8,0.6h-0.2v0H56.1v8.1H52V11.9
			h14.6C68.3,11.9,69.9,12.8,71,14.3L71,14.3z M67.5,22.4c0.8-0.4,1.3-1.9,1.3-2.9c0-1-0.4-2.1-0.6-2.4c-0.3-0.3-0.8-0.8-1.5-0.8
			H56.1v6.4h10.5C66.9,22.7,67.2,22.6,67.5,22.4L67.5,22.4z"/>
		<path class="st3" d="M79.6,18.2v2.1h14.9v4.1H79.6v4.4c0,1.2,1,2.1,2.1,2.1h16.9v4.1H81.7c-3.4,0-6.2-2.8-6.2-6.2V18.2
			c0-3.4,2.8-6.2,6.2-6.2h16.9v4.1H81.7C80.6,16.1,79.6,17,79.6,18.2"/>
		<path class="st3" d="M120.3,31v4.1h-11.7c-1.2,0-2.2-0.3-3.2-0.8c-1.5-0.7-2.6-1.9-3.3-3.4c-0.5-1-0.8-2.1-0.8-3.2V12h4.1v16.2
			c0.2,1.5,1.4,2.6,2.8,2.8L120.3,31z"/>
		<rect x="123.6" y="11.9" class="st3" width="4.1" height="23.1"/>
		<polygon class="st3" points="154.2,12 154.2,35.1 150.1,31.9 135.2,20.5 135.2,35.1 131.1,35.1 131.1,12 135.2,15.2 150.1,26.7 
			150.1,11.9 		"/>
		<path class="st3" d="M169,12c6.4,0,11.6,5.2,11.6,11.5c0,2.8-1,5.5-2.7,7.5c-0.2,0.2-0.4,0.5-0.7,0.7c-2.1,2.1-5,3.4-8.1,3.4
			h-11.6V11.9L169,12z M161.6,31h7.4c4.1,0,7.4-3.3,7.4-7.4s-3.3-7.4-7.4-7.4h-7.4V31z"/>
		<path class="st3" d="M206.2,23.5c0,6.4-5.2,11.6-11.6,11.6c-6.4,0-11.6-5.2-11.6-11.6s5.2-11.6,11.6-11.6
			C201,11.9,206.2,17.1,206.2,23.5 M202.1,23.5c0-4.1-3.3-7.4-7.4-7.4c-4.1,0-7.4,3.3-7.4,7.4s3.3,7.4,7.4,7.4
			C198.7,30.9,202.1,27.6,202.1,23.5"/>
	</g>
</g>
</svg>
