<?xml version="1.0" encoding="utf-8"?>
<!-- Generator: Adobe Illustrator 25.3.1, SVG Export Plug-In . SVG Version: 6.00 Build 0)  -->
<svg version="1.1" id="Layer_1" xmlns="http://www.w3.org/2000/svg" xmlns:xlink="http://www.w3.org/1999/xlink" x="0px" y="0px"
	 viewBox="0 0 216 50" style="enable-background:new 0 0 216 50;" xml:space="preserve">
<style type="text/css">
	.st0{fill:#0376BC;}
	.st1{fill:#3CB4E5;}
	.st2{fill:#0E74B6;}
	.st3{fill:#0475BC;}
</style>
<g>
	<path class="st0" d="M99.7,46.4h0.9v-4.8h-0.9V46.4z M105.4,41.6l-2,3.9l-0.4,0.9h1l0.4-0.9l0.2-0.3h1.8l0.2,0.3l0.4,0.9h1
		l-0.4-0.9L105.4,41.6z M104.9,44.6l0.5-1l0.5,1H104.9z M115.6,43.5l-1.5-1.2l-0.9-0.7v4.8h0.9v-3.1l0.8,0.6l0.7,0.5l0.7-0.5
		l0.8-0.6v3.1h0.9v-4.8l-0.9,0.7L115.6,43.5z M95.8,41.6h-1.9c-0.7,0-1.3,0.6-1.3,1.3v0c0,0.3,0.1,0.5,0.2,0.7
		c0,0.1,0.1,0.1,0.2,0.2c0.2,0.2,0.5,0.4,0.9,0.4h1.7c0.4,0,0.7,0.3,0.7,0.7c0,0.4-0.3,0.7-0.7,0.7H94c-0.4,0-0.7-0.3-0.7-0.7h-0.9
		c0,0.8,0.7,1.5,1.5,1.5h1.5c0.8,0,1.5-0.7,1.5-1.5c0-0.4-0.1-0.7-0.3-1c0,0,0,0-0.1-0.1c-0.3-0.3-0.7-0.5-1.1-0.5h-1.7
		c-0.2,0-0.4-0.2-0.4-0.4v0c0-0.2,0.2-0.4,0.4-0.4h1.9c0.2,0,0.4,0.2,0.4,0.4v0l0.9,0v0C97.1,42.2,96.5,41.6,95.8,41.6z M59.4,44.7
		l-3.1-2.4l-0.9-0.7v4.8h0.9v-3l3.1,2.4l0.9,0.7v-4.8l-0.9,0V44.7z M65.3,41.7l-2.4,0v4.8h2.4c0.7,0,1.3-0.3,1.7-0.7
		c0,0,0.1-0.1,0.1-0.1c0.4-0.4,0.6-1,0.6-1.5C67.7,42.7,66.7,41.7,65.3,41.7z M65.3,45.6h-1.5v-3.1h1.5c0.9,0,1.5,0.7,1.5,1.5
		C66.9,44.9,66.2,45.6,65.3,45.6z M51.9,46.4h0.9v-4.8h-0.9V46.4z M85,42.9v2.2c0,0.7,0.6,1.3,1.3,1.3h3.5v-0.9h-3.5
		c-0.2,0-0.4-0.2-0.4-0.4v-0.9H89v-0.9h-3.1v-0.4c0-0.2,0.2-0.4,0.4-0.4h3.5v-0.9h-3.5C85.6,41.6,85,42.2,85,42.9z M81.5,44.7
		l-3.1-2.4l-0.9-0.7v4.8h0.9v-3l3.1,2.4l0.9,0.7v-4.8l-0.9,0V44.7z M72.7,41.6c-1.3,0-2.4,1.1-2.4,2.4c0,1.3,1.1,2.4,2.4,2.4
		c1.3,0,2.4-1.1,2.4-2.4C75.1,42.7,74,41.6,72.7,41.6z M72.7,45.6c-0.8,0-1.5-0.7-1.5-1.5c0-0.9,0.7-1.5,1.5-1.5
		c0.9,0,1.5,0.7,1.5,1.5C74.2,44.9,73.5,45.6,72.7,45.6z M208.9,46.5L208.9,46.5L208.9,46.5L208.9,46.5z M199.9,44.5l-0.7-1
		l-0.1-0.2l-0.4-0.5l-0.4,0.5l-0.1,0.2l-0.7,1l-0.9-2.9h-0.9l1.1,3.8l0.3,1l0.6-0.9l0.9-1.3l1,1.3l0.6,0.9l0.3-1l1.1-3.8h-0.9
		L199.9,44.5z M188.1,42.9v2.2c0,0.7,0.6,1.3,1.3,1.3h3.5v-0.9h-3.5c-0.2,0-0.4-0.2-0.4-0.4v-0.9h3.1v-0.9H189v-0.4
		c0-0.2,0.2-0.4,0.4-0.4h3.5v-0.9h-3.5C188.7,41.6,188.1,42.2,188.1,42.9z M180.7,42.5h2v3.9h0.9v-3.9h2v-0.9h-4.8V42.5z
		 M205.4,41.6l-2,3.9l-0.4,0.9h1l0.4-0.9l0.2-0.3h1.8l0.2,0.3l0.4,0.9h1l-0.4-0.9L205.4,41.6z M204.8,44.6l0.5-1l0.5,1H204.8z
		 M132.1,43c0-0.4-0.1-0.7-0.4-0.9c-0.2-0.2-0.6-0.4-0.9-0.4h-3v4.8h0.9v-2.2h0.9c0.3,0,0.6,0.2,0.7,0.4l0,0l0.5,0.9l0.4,0.9h1
		l-0.4-0.9l-0.7-1.4c0.1,0,0.3,0,0.4-0.1C131.7,43.9,132.1,43.5,132.1,43z M130.9,43.3c-0.1,0-0.1,0-0.2,0l-2.2,0v-0.9h2.2
		c0.2,0,0.3,0.1,0.3,0.1c0,0,0.1,0.2,0.1,0.3C131.2,43.1,131.1,43.3,130.9,43.3z M177.2,41.6l-2,3.9l-0.4,0.9h1l0.4-0.9l0.2-0.3h1.8
		l0.2,0.3l0.4,0.9h1l-0.4-0.9L177.2,41.6z M176.6,44.6l0.5-1l0.5,1H176.6z M212.6,41.6l-1.3,1.7l-1.3-1.7h-1.1l1.9,2.4l0.1,0.1v2.2
		h0.9v-2.3l0.1-0.1l1.9-2.4H212.6z M213.7,46.5L213.7,46.5L213.7,46.5L213.7,46.5z M138.5,42.5h2v3.9h0.9v-3.9h2v-0.9h-4.8V42.5z
		 M134.7,46.4h0.9v-4.8h-0.9V46.4z M145.9,46.4h0.9v-4.8h-0.9V46.4z M167.5,44c0,1.3,1.1,2.4,2.4,2.4h2.4v-2.6h-2.4v0.9h1.5v0.9
		h-1.5c-0.9,0-1.5-0.7-1.5-1.5c0-0.9,0.7-1.5,1.5-1.5h2.4v-0.9h-2.4C168.6,41.6,167.5,42.7,167.5,44z M152.1,43.5l-1.5-1.2l-0.9-0.7
		v4.8h0.9v-3.1l0.8,0.6l0.7,0.5l0.7-0.5l0.8-0.6v3.1h0.9v-4.8l-0.9,0.7L152.1,43.5z M157.2,42.9v2.2c0,0.7,0.6,1.3,1.3,1.3h3.5v-0.9
		h-3.5c-0.2,0-0.4-0.2-0.4-0.4v-0.9h3.1v-0.9H158v-0.4c0-0.2,0.2-0.4,0.4-0.4h3.5v-0.9h-3.5C157.8,41.6,157.2,42.2,157.2,42.9z
		 M122.9,41.6l-2,3.9l-0.4,0.9h1l0.4-0.9l0.2-0.3h1.8l0.2,0.3l0.4,0.9h1l-0.4-0.9L122.9,41.6z M122.4,44.6l0.5-1l0.5,1H122.4z"/>
	<g>
		<rect x="6.2" y="37.2" class="st1" width="9.5" height="9.5"/>
		<path class="st1" d="M15.7,27.7H6.2V23C6.2,12.1,15,3.3,25.8,3.3h6.3l0,9.5h-6.3c-5.6,0-10.1,4.5-10.1,10.1V27.7z"/>
		<rect x="2.3" y="27.7" class="st2" width="3.9" height="9.5"/>
		<path class="st3" d="M21.9,37.2h-6.3v-9.5h6.3c5.6,0,10.1-4.5,10.1-10.1V3.3h8.1c0.8,0,1.4,0.6,1.4,1.4v12.8
			C41.6,28.4,32.8,37.2,21.9,37.2"/>
	</g>
	<g>
		<path class="st3" d="M71.8,15.4c1.2,1.5,1.9,3.6,1.9,5.9c0,3.4-1.6,5.3-3.8,6.7c-0.6,0.4-1.2,0.6-1.9,0.7h-0.2v0H56.2v8.5h-4.3
			V12.9h15.3C69,12.9,70.6,13.8,71.8,15.4L71.8,15.4z M68.1,23.9c0.8-0.4,1.3-1.9,1.3-3.1c0-1-0.4-2.2-0.7-2.5
			c-0.3-0.4-0.8-0.8-1.6-0.8h-11v6.7h11C67.5,24.2,67.8,24.1,68.1,23.9L68.1,23.9z"/>
		<path class="st3" d="M80.9,19.4v2.3h15.6V26H80.9v4.6c0,1.2,1,2.2,2.2,2.2h17.7v4.3H83.1c-3.6,0-6.5-2.9-6.5-6.5V19.4
			c0-3.6,2.9-6.5,6.5-6.5h17.7v4.3H83.1C81.9,17.2,80.9,18.2,80.9,19.4"/>
		<path class="st3" d="M123.6,32.8v4.3h-12.3c-1.2,0-2.4-0.3-3.4-0.8c-1.5-0.8-2.8-2-3.5-3.5c-0.5-1-0.8-2.2-0.8-3.4V12.9h4.3v16.9
			c0.2,1.5,1.4,2.7,2.9,2.9L123.6,32.8z"/>
		<rect x="127" y="12.9" class="st3" width="4.3" height="24.3"/>
		<polygon class="st3" points="159.1,12.9 159.1,37.2 154.7,33.8 139.1,21.8 139.1,37.2 134.8,37.2 134.8,13 139.1,16.3 154.7,28.3 
			154.7,12.9 		"/>
		<path class="st3" d="M174.6,12.9c6.7,0,12.1,5.4,12.1,12.1c0,3-1.1,5.7-2.9,7.8c-0.2,0.2-0.5,0.5-0.7,0.7
			c-2.2,2.2-5.2,3.6-8.5,3.6h-12.1V12.9L174.6,12.9z M166.8,32.8h7.8c4.3,0,7.8-3.5,7.8-7.8s-3.5-7.8-7.8-7.8h-7.8V32.8z"/>
		<path class="st3" d="M213.6,25c0,6.7-5.4,12.1-12.1,12.1c-6.7,0-12.1-5.4-12.1-12.1s5.4-12.1,12.1-12.1
			C208.2,12.9,213.6,18.3,213.6,25 M209.3,25c0-4.3-3.5-7.8-7.8-7.8c-4.3,0-7.8,3.5-7.8,7.8s3.5,7.8,7.8,7.8
			C205.8,32.8,209.3,29.3,209.3,25"/>
	</g>
</g>
</svg>
