<?xml version="1.0" encoding="utf-8"?>
<!-- Generator: Adobe Illustrator 25.3.1, SVG Export Plug-In . SVG Version: 6.00 Build 0)  -->
<svg version="1.1" id="Layer_1" xmlns="http://www.w3.org/2000/svg" xmlns:xlink="http://www.w3.org/1999/xlink" x="0px" y="0px"
	 viewBox="0 0 216 50" style="enable-background:new 0 0 216 50;" xml:space="preserve">
<style type="text/css">
	.st0{fill:#0376BC;}
	.st1{fill:#3CB4E5;}
	.st2{fill:#0E74B6;}
	.st3{fill:#0475BC;}
</style>
<g>
	<path class="st0" d="M100.2,46.8h0.9V42h-0.9V46.8z M106,42l-2,3.9l-0.4,0.9h1l0.4-0.9l0.2-0.3h1.8l0.2,0.3l0.4,0.9h1l-0.4-0.9
		L106,42z M105.4,44.9l0.5-1l0.5,1H105.4z M116.1,43.8l-1.5-1.2l-0.9-0.7v4.8h0.9v-3.1l0.8,0.6l0.7,0.5l0.7-0.5l0.8-0.6v3.1h0.9V42
		l-0.9,0.7L116.1,43.8z M96.3,42h-1.9c-0.7,0-1.3,0.6-1.3,1.3v0c0,0.3,0.1,0.5,0.2,0.7c0,0.1,0.1,0.1,0.2,0.2
		c0.2,0.2,0.5,0.4,0.9,0.4h1.7c0.4,0,0.7,0.3,0.7,0.7c0,0.4-0.3,0.7-0.7,0.7h-1.5c-0.4,0-0.7-0.3-0.7-0.7H93c0,0.8,0.7,1.5,1.5,1.5
		h1.5c0.8,0,1.5-0.7,1.5-1.5c0-0.4-0.1-0.7-0.3-1c0,0,0,0-0.1-0.1c-0.3-0.3-0.7-0.5-1.1-0.5h-1.7c-0.2,0-0.4-0.2-0.4-0.4v0
		c0-0.2,0.2-0.4,0.4-0.4h1.9c0.2,0,0.4,0.2,0.4,0.4v0l0.9,0v0C97.6,42.6,97,42,96.3,42z M60,45l-3.1-2.4L56.1,42v4.8h0.9v-3l3.1,2.4
		l0.9,0.7V42L60,42V45z M65.9,42l-2.4,0v4.8h2.4c0.7,0,1.3-0.3,1.7-0.7c0,0,0.1-0.1,0.1-0.1c0.4-0.4,0.6-1,0.6-1.5
		C68.3,43.1,67.2,42,65.9,42z M65.9,45.9h-1.5v-3.1h1.5c0.8,0,1.5,0.7,1.5,1.5S66.8,45.9,65.9,45.9z M52.5,46.8h0.9V42h-0.9V46.8z
		 M85.6,43.3v2.2c0,0.7,0.6,1.3,1.3,1.3h3.5v-0.9h-3.5c-0.2,0-0.4-0.2-0.4-0.4v-0.9h3.1v-0.9h-3.1v-0.4c0-0.2,0.2-0.4,0.4-0.4h3.5
		V42h-3.5C86.2,42,85.6,42.6,85.6,43.3z M82,45L79,42.7L78.1,42v4.8H79v-3l3.1,2.4l0.9,0.7V42L82,42V45z M73.2,42
		c-1.3,0-2.4,1.1-2.4,2.4c0,1.3,1.1,2.4,2.4,2.4c1.3,0,2.4-1.1,2.4-2.4C75.6,43.1,74.5,42,73.2,42z M73.2,45.9
		c-0.8,0-1.5-0.7-1.5-1.5c0-0.8,0.7-1.5,1.5-1.5c0.8,0,1.5,0.7,1.5,1.5C74.8,45.2,74.1,45.9,73.2,45.9z M209.2,46.8L209.2,46.8
		L209.2,46.8L209.2,46.8z M200.2,44.9l-0.7-1l-0.1-0.2l-0.4-0.5l-0.4,0.5l-0.1,0.2l-0.7,1l-0.9-2.9H196l1.1,3.8l0.3,1l0.6-0.9
		l0.9-1.3l1,1.3l0.6,0.9l0.3-1L202,42h-0.9L200.2,44.9z M188.5,43.3v2.2c0,0.7,0.6,1.3,1.3,1.3h3.5v-0.9h-3.5
		c-0.2,0-0.4-0.2-0.4-0.4v-0.9h3.1v-0.9h-3.1v-0.4c0-0.2,0.2-0.4,0.4-0.4h3.5V42h-3.5C189.1,42,188.5,42.6,188.5,43.3z M181,42.9h2
		v3.9h0.9v-3.9h2V42H181V42.9z M205.7,42l-2,3.9l-0.4,0.9h1l0.4-0.9l0.2-0.3h1.8l0.2,0.3l0.4,0.9h1l-0.4-0.9L205.7,42z M205.2,44.9
		l0.5-1l0.5,1H205.2z M132.5,43.3c0-0.4-0.1-0.7-0.4-0.9c-0.2-0.2-0.6-0.4-0.9-0.4h-3v4.8h0.9v-2.2h0.9c0.3,0,0.6,0.2,0.7,0.4l0,0
		l0.5,0.9l0.4,0.9h1l-0.4-0.9l-0.7-1.4c0.1,0,0.3,0,0.4-0.1C132.2,44.3,132.5,43.8,132.5,43.3z M131.4,43.7c-0.1,0-0.1,0-0.2,0
		l-2.2,0v-0.9h2.2c0.2,0,0.3,0.1,0.3,0.1c0,0,0.1,0.2,0.1,0.3C131.7,43.5,131.6,43.6,131.4,43.7z M177.5,42l-2,3.9l-0.4,0.9h1
		l0.4-0.9l0.2-0.3h1.8l0.2,0.3l0.4,0.9h1l-0.4-0.9L177.5,42z M177,44.9l0.5-1l0.5,1H177z M212.9,42l-1.3,1.7l-1.3-1.7h-1.1l1.9,2.4
		l0.1,0.1v2.2h0.9v-2.3l0.1-0.1L214,42H212.9z M214,46.8L214,46.8L214,46.8L214,46.8z M138.9,42.9h2v3.9h0.9v-3.9h2V42h-4.8V42.9z
		 M135.2,46.8h0.9V42h-0.9V46.8z M146.4,46.8h0.9V42h-0.9V46.8z M167.9,44.4c0,1.3,1.1,2.4,2.4,2.4h2.4v-2.6h-2.4V45h1.5v0.9h-1.5
		c-0.8,0-1.5-0.7-1.5-1.5c0-0.8,0.7-1.5,1.5-1.5h2.4V42h-2.4C169,42,167.9,43.1,167.9,44.4z M152.5,43.8l-1.5-1.2l-0.9-0.7v4.8h0.9
		v-3.1l0.8,0.6l0.7,0.5l0.7-0.5l0.8-0.6v3.1h0.9V42l-0.9,0.7L152.5,43.8z M157.6,43.3v2.2c0,0.7,0.6,1.3,1.3,1.3h3.5v-0.9h-3.5
		c-0.2,0-0.4-0.2-0.4-0.4v-0.9h3.1v-0.9h-3.1v-0.4c0-0.2,0.2-0.4,0.4-0.4h3.5V42h-3.5C158.2,42,157.6,42.6,157.6,43.3z M123.4,42
		l-2,3.9l-0.4,0.9h1l0.4-0.9l0.2-0.3h1.8l0.2,0.3l0.4,0.9h1l-0.4-0.9L123.4,42z M122.9,44.9l0.5-1l0.5,1H122.9z"/>
	<g>
		<rect x="6.8" y="37.5" class="st1" width="9.5" height="9.5"/>
		<path class="st1" d="M16.3,28H6.8v-4.7c0-10.8,8.8-19.6,19.6-19.6h6.3l0,9.5h-6.3c-5.6,0-10.1,4.5-10.1,10.1V28z"/>
		<rect x="3" y="28" class="st2" width="3.8" height="9.5"/>
		<path class="st3" d="M22.6,37.5h-6.3V28h6.3c5.6,0,10.1-4.5,10.1-10.1V3.7h8.1c0.8,0,1.4,0.6,1.4,1.4v12.8
			C42.2,28.7,33.4,37.5,22.6,37.5"/>
	</g>
	<g>
		<path class="st3" d="M72.4,15.8c1.2,1.5,1.9,3.6,1.9,5.9c0,3.4-1.6,5.3-3.8,6.6c-0.6,0.4-1.2,0.6-1.9,0.7h-0.2v0H56.8v8.5h-4.3
			V13.3h15.3C69.5,13.3,71.2,14.2,72.4,15.8L72.4,15.8z M68.7,24.2c0.8-0.4,1.3-1.9,1.3-3c0-1-0.4-2.2-0.7-2.5
			c-0.3-0.4-0.8-0.8-1.6-0.8h-11v6.7h11C68.1,24.5,68.4,24.5,68.7,24.2L68.7,24.2z"/>
		<path class="st3" d="M81.4,19.8v2.2H97v4.3H81.4V31c0,1.2,1,2.2,2.2,2.2h17.7v4.3H83.6c-3.6,0-6.5-2.9-6.5-6.5V19.8
			c0-3.6,2.9-6.5,6.5-6.5h17.7v4.3H83.6C82.4,17.6,81.4,18.6,81.4,19.8"/>
		<path class="st3" d="M124,33.2v4.3h-12.3c-1.2,0-2.4-0.3-3.4-0.8c-1.5-0.8-2.8-2-3.5-3.5c-0.5-1-0.8-2.2-0.8-3.4V13.3h4.3v16.9
			c0.2,1.5,1.4,2.7,2.9,2.9L124,33.2z"/>
		<rect x="127.5" y="13.3" class="st3" width="4.3" height="24.2"/>
		<polygon class="st3" points="159.5,13.3 159.5,37.5 155.2,34.2 139.6,22.2 139.6,37.5 135.3,37.5 135.3,13.4 139.6,16.7 
			155.2,28.7 155.2,13.3 		"/>
		<path class="st3" d="M175,13.3c6.7,0,12.1,5.4,12.1,12.1c0,3-1.1,5.7-2.9,7.8c-0.2,0.2-0.4,0.5-0.7,0.7c-2.2,2.2-5.2,3.6-8.5,3.6
			h-12.1V13.3L175,13.3z M167.2,33.2h7.8c4.3,0,7.8-3.5,7.8-7.8s-3.5-7.8-7.8-7.8h-7.8V33.2z"/>
		<path class="st3" d="M214,25.4c0,6.7-5.4,12.1-12.1,12.1c-6.7,0-12.1-5.4-12.1-12.1s5.4-12.1,12.1-12.1
			C208.5,13.3,214,18.7,214,25.4 M209.6,25.4c0-4.3-3.5-7.8-7.8-7.8c-4.3,0-7.8,3.5-7.8,7.8s3.5,7.8,7.8,7.8
			C206.1,33.2,209.6,29.7,209.6,25.4"/>
	</g>
</g>
</svg>
